HIERARCHY
ROOT Hips
{
	OFFSET -1.602300 6.242603 43.997101
	CHANNELS 6 Xposition Yposition Zposition Zrotation Xrotation Yrotation
	JOINT Chest
	{
		OFFSET -0.204900 1.598101 7.917301
		CHANNELS 6 Xposition Yposition Zposition Zrotation Xrotation Yrotation
		JOINT Chest2
		{
			OFFSET 0.000000 0.000000 3.404099
			CHANNELS 6 Xposition Yposition Zposition Zrotation Xrotation Yrotation
			JOINT Neck
			{
				OFFSET 0.000000 0.000000 7.928600
				CHANNELS 6 Xposition Yposition Zposition Zrotation Xrotation Yrotation
				JOINT Head
				{
					OFFSET 0.000000 0.000000 2.173897
					CHANNELS 6 Xposition Yposition Zposition Zrotation Xrotation Yrotation
					End Site
					{
						OFFSET 0.000000 0.000001 10.404503
					}
				}
			}
			JOINT LeftCollar
			{
				OFFSET 2.833800 -1.396299 4.843300
				CHANNELS 6 Xposition Yposition Zposition Zrotation Xrotation Yrotation
				JOINT LeftShoulder
				{
					OFFSET 4.363600 0.000000 0.000000
					CHANNELS 6 Xposition Yposition Zposition Zrotation Xrotation Yrotation
					JOINT LeftElbow
					{
						OFFSET 0.000000 -0.000001 -10.306900
						CHANNELS 6 Xposition Yposition Zposition Zrotation Xrotation Yrotation
						JOINT LeftWrist
						{
							OFFSET 0.000000 -0.000001 -12.404900
							CHANNELS 6 Xposition Yposition Zposition Zrotation Xrotation Yrotation
							End Site
							{
								OFFSET 0.000000 0.000000 -2.173901
							}
						}
					}
				}
			}
			JOINT RightCollar
			{
				OFFSET -2.354800 -1.897200 5.063099
				CHANNELS 6 Xposition Yposition Zposition Zrotation Xrotation Yrotation
				JOINT RightShoulder
				{
					OFFSET -4.375800 0.000000 0.000000
					CHANNELS 6 Xposition Yposition Zposition Zrotation Xrotation Yrotation
					JOINT RightElbow
					{
						OFFSET 0.000000 -0.000001 -10.005001
						CHANNELS 6 Xposition Yposition Zposition Zrotation Xrotation Yrotation
						JOINT RightWrist
						{
							OFFSET 0.000000 -0.000001 -13.174900
							CHANNELS 6 Xposition Yposition Zposition Zrotation Xrotation Yrotation
							End Site
							{
								OFFSET 0.000000 0.000000 -2.173901
							}
						}
					}
				}
			}
		}
	}
	JOINT LeftHip
	{
		OFFSET 2.240600 0.386800 -2.614101
		CHANNELS 6 Xposition Yposition Zposition Zrotation Xrotation Yrotation
		JOINT LeftKnee
		{
			OFFSET 0.000000 -0.000001 -18.592899
			CHANNELS 6 Xposition Yposition Zposition Zrotation Xrotation Yrotation
			JOINT LeftAnkle
			{
				OFFSET 0.000000 -0.000001 -18.765800
				CHANNELS 6 Xposition Yposition Zposition Zrotation Xrotation Yrotation
				End Site
				{
					OFFSET 0.000000 -8.655000 0.000000
				}
			}
		}
	}
	JOINT RightHip
	{
		OFFSET -2.014900 -0.220900 -2.615898
		CHANNELS 6 Xposition Yposition Zposition Zrotation Xrotation Yrotation
		JOINT RightKnee
		{
			OFFSET 0.000000 -0.000001 -18.633900
			CHANNELS 6 Xposition Yposition Zposition Zrotation Xrotation Yrotation
			JOINT RightAnkle
			{
				OFFSET 0.000000 -0.000001 -18.285101
				CHANNELS 6 Xposition Yposition Zposition Zrotation Xrotation Yrotation
				End Site
				{
					OFFSET 0.000000 -7.524500 0.000000
				}
			}
		}
	}
}
MOTION
Frames: 6
Frame Time: 0.041667
-11.067600 23.988304 9.978806 1.136499 5.202759 -13.133102 -0.204898 1.598099 7.917310 -31.963472 2.159104 10.994871 -0.000001 0.000004 3.404099 4.852817 -15.009494 -1.383239 -0.000005 -0.000001 7.928601 53.920549 3.200899 -24.467290 0.000000 -0.000001 2.173910 5.966897 1.940068 9.452146 2.833802 -1.396303 4.843301 -5.056973 7.733197 38.886562 4.363592 0.000002 -0.000003 -9.866855 18.688883 -104.936930 0.000000 0.000000 -10.306895 226.848150 -179.896692 178.787660 0.000000 -0.000003 -12.404886 -204.139096 182.259636 -199.321613 -2.354804 -1.897204 5.063103 5.301525 10.439316 -7.847781 -4.375796 0.000003 -0.000009 80.699518 -50.770586 160.363020 -0.000007 0.000008 -10.005009 -52.361473 17.185063 -94.125683 -0.000002 -0.000005 -13.174893 81.669911 -228.791857 176.346660 2.240597 0.386797 -2.614103 157.632597 -8.707599 99.513684 0.000003 0.000001 -18.592897 -25.196955 48.908058 -26.958721 0.000002 0.000001 -18.765795 -37.868683 62.915017 17.087663 -2.014897 -0.220895 -2.615897 -93.949259 -28.757828 -81.472293 0.000001 0.000004 -18.633890 162.019464 31.312767 -173.401810 -0.000006 -0.000003 -18.285086 -39.374186 29.776766 -205.704343
-11.062001 23.997908 9.975513 1.184940 5.190360 -13.102044 -0.204898 1.598102 7.917313 -31.871988 2.251480 10.962918 -0.000001 0.000001 3.404099 4.809482 -15.056817 -1.357031 -0.000005 -0.000002 7.928598 53.818428 3.299426 -24.309610 0.000001 -0.000002 2.173900 6.005900 1.835796 9.482975 2.833801 -1.396300 4.843301 -5.203471 7.752025 39.074385 4.363596 0.000002 -0.000007 -9.730310 18.448852 -105.147381 0.000000 -0.000000 -10.306900 226.718677 -179.760388 178.850853 -0.000000 -0.000000 -12.404890 -204.264061 182.206593 -199.279279 -2.354803 -1.897203 5.063106 5.181223 10.356152 -7.907697 -4.375798 0.000003 -0.000001 80.803378 -50.763844 160.359673 -0.000004 0.000007 -10.005008 -52.310213 17.295374 -94.169731 -0.000007 -0.000001 -13.174900 81.867890 -228.750508 176.258400 2.240596 0.386800 -2.614100 157.561030 -8.784299 99.529783 0.000003 0.000003 -18.592896 -25.126751 48.875669 -26.949872 0.000003 -0.000001 -18.765799 -37.895150 63.019130 16.791911 -2.014898 -0.220897 -2.615894 -94.036316 -28.683724 -81.498036 -0.000000 0.000005 -18.633884 162.071592 31.291064 -173.412178 -0.000006 -0.000001 -18.285086 -39.322243 29.858496 -206.005527
-11.057101 24.008005 9.974007 1.225230 5.174669 -13.076010 -0.204900 1.598101 7.917306 -31.715700 2.346992 10.953901 0.000003 0.000001 3.404102 4.751020 -15.074842 -1.337235 -0.000003 -0.000001 7.928596 53.783474 3.367775 -24.198257 0.000002 0.000001 2.173902 5.979165 1.762291 9.597940 2.833806 -1.396301 4.843297 -5.385319 7.783326 38.932853 4.363586 0.000003 -0.000007 -9.835966 17.715132 -104.981811 -0.000000 -0.000001 -10.306895 226.057705 -179.611695 178.975845 -0.000001 0.000001 -12.404894 -204.415199 182.141911 -199.204981 -2.354802 -1.897200 5.063101 5.003096 10.181649 -7.879119 -4.375794 0.000004 -0.000010 80.696855 -50.786234 160.134209 -0.000001 0.000003 -10.005002 -52.358987 17.299768 -94.169471 -0.000008 0.000002 -13.174894 81.906187 -228.762925 176.241065 2.240594 0.386804 -2.614101 157.502646 -8.842946 99.530732 0.000003 0.000002 -18.592896 -25.171612 48.892437 -26.841412 0.000003 -0.000000 -18.765797 -37.709263 63.140953 16.295102 -2.014897 -0.220894 -2.615900 -94.107255 -28.622092 -81.508534 0.000001 0.000004 -18.633886 162.120359 31.270925 -173.419022 -0.000006 -0.000003 -18.285086 -39.271972 29.931614 -206.283966
-11.052001 24.019405 9.972404 1.255905 5.154762 -13.053570 -0.204898 1.598104 7.917309 -31.563896 2.417140 10.983966 0.000000 0.000001 3.404095 4.657223 -15.120855 -1.366475 -0.000003 -0.000002 7.928599 53.837248 3.371461 -24.252979 0.000002 -0.000001 2.173897 5.902407 1.823878 9.713689 2.833799 -1.396304 4.843297 -5.939456 8.079769 39.187264 4.363590 0.000003 -0.000006 -9.489007 17.257050 -105.249834 0.000002 0.000001 -10.306890 226.019183 -179.474354 179.020979 0.000000 -0.000001 -12.404893 -204.497653 182.116899 -199.118879 -2.354804 -1.897201 5.063105 4.559628 10.264562 -7.641770 -4.375793 0.000004 -0.000008 81.414987 -51.023282 160.338732 -0.000005 0.000008 -10.005004 -52.196972 17.513932 -94.106763 -0.000003 -0.000005 -13.174900 82.119610 -228.796898 176.264848 2.240597 0.386806 -2.614101 157.455108 -8.892192 99.524776 0.000003 -0.000000 -18.592896 -25.129381 48.871144 -26.793126 0.000002 0.000000 -18.765795 -37.591432 63.279175 15.784847 -2.014897 -0.220888 -2.615899 -94.146774 -28.612979 -81.502947 0.000001 0.000005 -18.633886 162.128719 31.259146 -173.430661 -0.000006 -0.000003 -18.285086 -39.227177 29.989657 -206.497847
-11.046000 24.034405 9.968105 1.232625 5.005487 -13.020562 -0.204897 1.598099 7.917305 -31.423580 2.692259 11.125080 0.000000 -0.000004 3.404101 4.579620 -15.212904 -1.426413 -0.000002 0.000001 7.928599 54.007877 3.288828 -24.418032 0.000001 -0.000001 2.173902 5.683939 1.922034 9.892797 2.833805 -1.396298 4.843297 -6.414404 8.337383 39.358139 4.363590 0.000004 -0.000008 -9.340012 16.490064 -105.405132 -0.000001 -0.000002 -10.306895 225.514323 -179.321754 179.102887 -0.000000 -0.000000 -12.404891 -204.361814 181.871040 -198.929014 -2.354803 -1.897201 5.063105 4.500834 10.330896 -7.988315 -4.375793 0.000002 -0.000016 81.998750 -50.774704 160.828620 -0.000006 0.000007 -10.005004 -52.001403 17.693412 -94.013750 -0.000003 0.000000 -13.174892 82.328129 -228.764441 176.265913 2.240597 0.386800 -2.614102 157.423457 -9.070445 99.485626 0.000004 -0.000002 -18.592894 -25.096350 48.864430 -26.741700 0.000002 -0.000001 -18.765797 -37.412740 63.411114 15.200137 -2.014895 -0.220896 -2.615898 -93.997610 -28.792925 -81.306374 0.000000 0.000006 -18.633886 161.998222 31.290548 -173.485125 -0.000006 -0.000001 -18.285084 -39.165770 30.015779 -206.620162
-11.041002 24.049406 9.963604 1.227906 4.942781 -12.985797 -0.204900 1.598101 7.917313 -31.283346 2.831994 11.190700 0.000001 -0.000001 3.404107 4.495310 -15.276881 -1.474011 0.000000 0.000001 7.928599 53.890128 3.341114 -24.356540 0.000002 -0.000001 2.173908 5.638362 1.908270 9.821135 2.833805 -1.396300 4.843302 -6.607907 8.509187 39.889080 4.363588 0.000000 -0.000002 -9.268116 16.241507 -105.985671 -0.000001 -0.000001 -10.306896 225.501919 -179.362885 179.044694 -0.000001 0.000001 -12.404886 -204.538143 181.835263 -198.630985 -2.354799 -1.897198 5.063105 4.173098 10.451986 -8.389046 -4.375793 -0.000001 -0.000007 83.185707 -50.477550 161.563808 -0.000006 0.000008 -10.005008 -51.563830 18.103307 -93.946745 -0.000006 0.000001 -13.174899 82.793019 -228.756969 176.207529 2.240593 0.386804 -2.614100 157.404824 -9.154830 99.477990 0.000003 0.000004 -18.592892 -24.817569 48.749184 -26.868407 0.000001 0.000003 -18.765797 -37.546417 63.518833 14.937267 -2.014898 -0.220895 -2.615897 -93.915272 -28.915647 -81.216045 -0.000000 0.000007 -18.633886 161.898597 31.311882 -173.528005 -0.000007 -0.000002 -18.285086 -39.121869 30.036228 -206.696428
